{
    "asset" : {
        "generator" : "Khronos glTF Blender I/O v3.2.43",
        "version" : "2.0"
    },
    "scene" : 0,
    "scenes" : [
        {
            "name" : "Scene",
            "nodes" : [
                11
            ]
        }
    ],
    "nodes" : [
        {
            "mesh" : 0,
            "name" : "Ground"
        },
        {
            "children" : [
                0
            ],
            "name" : "Mesh_0025_rip"
        },
        {
            "mesh" : 1,
            "name" : "Mesh_0031_rip1_rocas_0",
            "translation" : [
                -2.682209014892578e-06,
                0,
                0
            ]
        },
        {
            "children" : [
                2
            ],
            "name" : "Mesh_0031_rip1",
            "rotation" : [
                0,
                -0.9939540028572083,
                0,
                0.10979734361171722
            ],
            "translation" : [
                -19.05035400390625,
                0,
                -15.822709083557129
            ]
        },
        {
            "mesh" : 2,
            "name" : "Raised_Platform",
            "translation" : [
                0,
                1.9424043893814087,
                0
            ]
        },
        {
            "children" : [
                4
            ],
            "name" : "Mesh_0032_rip",
            "scale" : [
                1.4226194620132446,
                2.731854200363159,
                1.4226194620132446
            ],
            "translation" : [
                2.881277561187744,
                -5.274773597717285,
                4.13637638092041
            ]
        },
        {
            "name" : "Mesh_0048_rip",
            "translation" : [
                -8.93567180633545,
                0,
                -10.495841026306152
            ]
        },
        {
            "children" : [
                1,
                3,
                5,
                6
            ],
            "name" : "Jaula"
        },
        {
            "children" : [
                7
            ],
            "name" : "RootNode"
        },
        {
            "children" : [
                8
            ],
            "name" : "Jaula Jurassic.fbx",
            "rotation" : [
                0.7071068286895752,
                0,
                0,
                0.7071067094802856
            ]
        },
        {
            "children" : [
                9
            ],
            "name" : "RootNode (model correction matrix)"
        },
        {
            "children" : [
                10
            ],
            "name" : "RootNode (gltf orientation matrix)",
            "rotation" : [
                0.5000001788139343,
                -0.49999988079071045,
                0.4999998211860657,
                0.5000001192092896
            ],
            "translation" : [
                11.480140686035156,
                0,
                1.5996756553649902
            ]
        }
    ],
    "materials" : [
        {
            "name" : "suelo",
            "pbrMetallicRoughness" : {
                "baseColorTexture" : {
                    "index" : 0
                },
                "metallicFactor" : 0,
                "roughnessFactor" : 0.6000000238418579
            }
        },
        {
            "name" : "globaOneSided",
            "pbrMetallicRoughness" : {
                "baseColorTexture" : {
                    "index" : 1
                },
                "metallicFactor" : 0,
                "roughnessFactor" : 0.8202614784240723
            }
        },
        {
            "doubleSided" : true,
            "name" : "globalTwoSided",
            "pbrMetallicRoughness" : {
                "baseColorTexture" : {
                    "index" : 2
                },
                "metallicFactor" : 0,
                "roughnessFactor" : 0.8202614784240723
            }
        }
    ],
    "meshes" : [
        {
            "name" : "Mesh_0025_rip_cubo_0.001",
            "primitives" : [
                {
                    "attributes" : {
                        "POSITION" : 0,
                        "NORMAL" : 1,
                        "TEXCOORD_0" : 2
                    },
                    "indices" : 3,
                    "material" : 0
                }
            ]
        },
        {
            "name" : "Mesh_0031_rip1_rocas_0",
            "primitives" : [
                {
                    "attributes" : {
                        "POSITION" : 4,
                        "NORMAL" : 5,
                        "TEXCOORD_0" : 6
                    },
                    "indices" : 7,
                    "material" : 1
                }
            ]
        },
        {
            "name" : "Mesh_0032_rip_Multi_0",
            "primitives" : [
                {
                    "attributes" : {
                        "POSITION" : 8,
                        "NORMAL" : 9,
                        "TEXCOORD_0" : 10
                    },
                    "indices" : 11,
                    "material" : 2
                }
            ]
        }
    ],
    "textures" : [
        {
            "sampler" : 0,
            "source" : 0
        },
        {
            "sampler" : 0,
            "source" : 1
        },
        {
            "sampler" : 0,
            "source" : 1
        }
    ],
    "images" : [
        {
            "bufferView" : 4,
            "mimeType" : "image/png",
            "name" : "suelo_baseColor"
        },
        {
            "bufferView" : 9,
            "mimeType" : "image/png",
            "name" : "baseColorAtlas"
        }
    ],
    "accessors" : [
        {
            "bufferView" : 0,
            "componentType" : 5126,
            "count" : 353,
            "max" : [
                22.33025550842285,
                1.0516890287399292,
                21.57973861694336
            ],
            "min" : [
                -45.131752014160156,
                -0.20614799857139587,
                -54.90245819091797
            ],
            "type" : "VEC3"
        },
        {
            "bufferView" : 1,
            "componentType" : 5126,
            "count" : 353,
            "type" : "VEC3"
        },
        {
            "bufferView" : 2,
            "componentType" : 5126,
            "count" : 353,
            "type" : "VEC2"
        },
        {
            "bufferView" : 3,
            "componentType" : 5123,
            "count" : 1716,
            "type" : "SCALAR"
        },
        {
            "bufferView" : 5,
            "componentType" : 5126,
            "count" : 16947,
            "max" : [
                38.153358459472656,
                1.1363680362701416,
                40.5721435546875
            ],
            "min" : [
                -52.322818756103516,
                -24.976303100585938,
                -51.369140625
            ],
            "type" : "VEC3"
        },
        {
            "bufferView" : 6,
            "componentType" : 5126,
            "count" : 16947,
            "type" : "VEC3"
        },
        {
            "bufferView" : 7,
            "componentType" : 5126,
            "count" : 16947,
            "type" : "VEC2"
        },
        {
            "bufferView" : 8,
            "componentType" : 5123,
            "count" : 28032,
            "type" : "SCALAR"
        },
        {
            "bufferView" : 10,
            "componentType" : 5126,
            "count" : 202,
            "max" : [
                -0.5284394025802612,
                1.9670809507369995,
                -8.25153923034668
            ],
            "min" : [
                -4.337855339050293,
                -0.13227534294128418,
                -13.686519622802734
            ],
            "type" : "VEC3"
        },
        {
            "bufferView" : 11,
            "componentType" : 5126,
            "count" : 202,
            "type" : "VEC3"
        },
        {
            "bufferView" : 12,
            "componentType" : 5126,
            "count" : 202,
            "type" : "VEC2"
        },
        {
            "bufferView" : 13,
            "componentType" : 5123,
            "count" : 324,
            "type" : "SCALAR"
        }
    ],
    "bufferViews" : [
        {
            "buffer" : 0,
            "byteLength" : 4236,
            "byteOffset" : 0
        },
        {
            "buffer" : 0,
            "byteLength" : 4236,
            "byteOffset" : 4236
        },
        {
            "buffer" : 0,
            "byteLength" : 2824,
            "byteOffset" : 8472
        },
        {
            "buffer" : 0,
            "byteLength" : 3432,
            "byteOffset" : 11296
        },
        {
            "buffer" : 0,
            "byteLength" : 151763,
            "byteOffset" : 14728
        },
        {
            "buffer" : 0,
            "byteLength" : 203364,
            "byteOffset" : 166492
        },
        {
            "buffer" : 0,
            "byteLength" : 203364,
            "byteOffset" : 369856
        },
        {
            "buffer" : 0,
            "byteLength" : 135576,
            "byteOffset" : 573220
        },
        {
            "buffer" : 0,
            "byteLength" : 56064,
            "byteOffset" : 708796
        },
        {
            "buffer" : 0,
            "byteLength" : 1803677,
            "byteOffset" : 764860
        },
        {
            "buffer" : 0,
            "byteLength" : 2424,
            "byteOffset" : 2568540
        },
        {
            "buffer" : 0,
            "byteLength" : 2424,
            "byteOffset" : 2570964
        },
        {
            "buffer" : 0,
            "byteLength" : 1616,
            "byteOffset" : 2573388
        },
        {
            "buffer" : 0,
            "byteLength" : 648,
            "byteOffset" : 2575004
        }
    ],
    "samplers" : [
        {
            "magFilter" : 9729,
            "minFilter" : 9987
        }
    ],
    "buffers" : [
        {
            "byteLength" : 2575652,
            "uri" : "data:application/octet-stream;base64,"
        }
    ]
}
